<svg id="Layer_1" data-name="Layer 1" xmlns="http://www.w3.org/2000/svg" viewBox="0 0 600 600"><defs><style>.cls-1{fill:#c1272d;}</style></defs><path class="cls-1" d="M292.7,2.3c-10.9,13.4-18.1,26.4-21.3,38.2-2.2,8.1-3,28.7-1.4,38.3,1.7,10.5,6.1,23.8,12,35.7,5.2,10.7,13.7,24.5,15,24.5s7.9-10.5,13.6-21.5c6.2-12,10.7-24.4,12.8-35.5,2-10.2,2-28.3.2-37.1-2.8-13.2-10-27.6-19.6-39.3C299-.6,295.8-1.5,292.7,2.3Z"/><path class="cls-1" d="M90.6,65.7c-3.7,13.3-4,33.4-.7,46.2,7.5,28.4,28.3,51.8,62,69.9l9.9,5.3.8-5.8c.4-3.2.4-11.8.1-19.3-2.1-48-22.6-79.8-61.2-94.8C93.3,64,91.2,63.7,90.6,65.7Z"/><path class="cls-1" d="M501,66.4q-47.1,16.65-59.6,66.3c-3.7,14.7-5.3,35.8-3.8,49l.7,5.2,7.6-3.9c46.5-23.4,71.1-61.3,66.2-101.8-1.3-10.6-2.8-17.2-3.9-17.2C507.8,64,504.6,65.1,501,66.4Z"/><path class="cls-1" d="M155.5,79.2c.3,1.3,2.6,6.3,5,11.3,9.2,18.8,30.4,43.1,69.5,79.8,13.5,12.6,34.8,32.9,47.3,45l22.9,22,15.1-15c8.4-8.2,29-27.8,45.8-43.6,50.2-46.8,69-68.2,79.9-90.9,6.6-13.6,5-14.8-3.3-2.4-3.2,4.6-10,13.3-15.1,19.2-15.1,17.5-28.7,29-61.8,52.2-27,18.9-39.2,28.7-51.1,41.2L300,208.2,290.3,198c-11.4-12-24.7-22.9-46.8-38.2-29.5-20.6-43.9-32-57.4-45.8-8.3-8.3-20.8-23.7-26-31.8C156.7,76.8,154.4,75.3,155.5,79.2Z"/><path class="cls-1" d="M105,181.7c.1,1,.6,1.4,33,23.7,45.5,31.3,63.1,45,80.9,62.7,22.1,22.1,36.1,44.1,44,69.3,3.2,9.9,4.9,18.6,3.8,18.6-.4,0-7.3-1.3-15.4-3-24.4-4.9-44.1-7-65.1-7-33.6.1-58,5.4-84.2,18.4l-9.5,4.8-16.4,41C60.9,448.4,59.8,451.5,60.3,456c1.3,10.6,10.7,22.2,20.8,25.5a36.37,36.37,0,0,0,21.9,0c11-3.6,21-17,21-28.1,0-2-6.2-19-15.6-42.4-8.6-21.5-15.3-39.4-14.9-39.8,1.1-1.1,47-.6,60,.7,68,6.9,105.5,30.9,117.2,74.7,2.3,8.9,2.6,11.7,2.6,27.4,0,18.5-1.1,27.1-5.9,46.5-5.2,20.6-12.5,40.6-23.9,65.7L237.2,600H362.9l-4.6-9.8c-27.9-59.7-37.7-109.2-28.7-144.7,2.3-9,10.6-25.2,16.6-32.3,19.2-22.8,52.9-36.6,100.8-41.3,13.6-1.3,58.4-1.8,59.6-.7.3.4-6.4,18.6-15.1,40.4-14.6,36.8-15.7,40-15.2,44.5,1.8,14.9,16.1,27.2,31.7,27.2S537.9,471,539.7,456c.5-4.6-.5-7.6-15.7-45.9L507.7,369l-10.1-4.9c-26.7-13-50.2-18-83.8-18.1-21.1,0-40.7,2.1-65.2,7-8.2,1.7-15.1,2.8-15.4,2.5-1.1-1.1,3.9-19.3,8.2-29.6,8.2-20.2,19.2-36.3,37.6-55.3,19-19.5,34.8-32,81.2-63.9,34-23.4,34.8-24,34.8-24.9,0-.4-.2-.8-.5-.8-1.4,0-61.8,19.6-70.8,22.9-39.2,14.6-62.1,27.8-82.3,47.3a149.13,149.13,0,0,0-37.3,56.9c-2.1,5.6-4.1,9.7-4.4,9.1a77.87,77.87,0,0,1-3.3-8.3,155.87,155.87,0,0,0-42.6-62.5c-16.4-14.6-42.9-29.6-71.5-40.3-11.1-4.2-75.1-25.1-76.8-25.1C105.2,181,105,181.3,105,181.7Zm-.7,230c6.3,17.5,11.9,32.6,12.2,33.5.7,1.7-.9,1.8-23.9,1.8-19,0-24.6-.3-24.6-1.3,0-1.9,23.4-65.7,24.1-65.7C92.4,380,97.9,394.3,104.3,411.7Zm416.4,1.5,12.1,33.3-12.4.3c-6.8.1-18,.1-24.8,0l-12.4-.3,12.1-33.3C502,395,507.7,380,508.1,380S514.1,395,520.7,413.2Z"/><path class="cls-1" d="M23.5,193.6c.8,9.9,3.7,22.5,6.9,30.3C42.2,253,71.8,274.7,112.3,284c5.3,1.2,9.7,2.4,9.7,2.7s-3.9.1-8.7-.2c-15.8-1.2-40.8,2.2-55,7.5-20.9,7.8-36.1,20.2-46.9,38.3-4.7,7.9-11.5,25-10.3,26.1,1.7,1.7,21.3,3.8,30.9,3.2,13.6-.7,21.2-2.7,33.5-8.6,21.3-10.3,38.6-28.7,53.9-57.1l4.7-8.7-2.2-9.7c-4-18.6-12.1-38.6-21-51.7a89.08,89.08,0,0,0-69.2-39.5l-8.9-.6Z"/><path class="cls-1" d="M561.5,186.7a122.28,122.28,0,0,0-25.1,7.3c-27.6,12.5-46.9,38.8-56.9,77.8-3.5,13.9-3.5,14.7,1.3,24.1,23,45,57.7,68.3,97.6,65.7,8.8-.5,16.4-1.7,20.3-3.1,1.5-.5-3.5-14.6-8.3-23.4-12.7-23.1-33.9-38.5-61.9-45-12.2-2.8-31.1-4.4-41.7-3.6-4.9.3-8.8.4-8.8.2s4.4-1.5,9.8-2.7c19-4.4,36-11.6,50-21.3,8.6-5.9,21.4-19.1,26.1-27,6.9-11.6,11.4-26.2,12.6-41l.7-8.7-6.3.1C567.4,186.2,563.2,186.5,561.5,186.7Z"/></svg>